<svg xmlns="http://www.w3.org/2000/svg" width="485" height="168" viewBox="0 0 485 168" fill="none"><g clip-path="url(#clip0_348_1675)"><path d="M149.807 167.775H186.188V134.951H186.109V32.8579H186.188V0.0346785H132.636L93.2276 90.7276L53.8189 0.0346785H0.267578V167.775H36.6482V134.951H36.5694V48.836L73.9827 134.951H112.472L149.807 49.0181V167.775ZM322.145 83.7833C322.145 121.435 295.837 134.951 268.549 134.951H241.997V32.8579H268.549C295.837 32.8579 322.145 46.3738 322.145 83.7833ZM359.899 84.026C359.899 29.2426 317.515 0.0346785 272.444 0.0346785H205.686V167.775H272.444C317.515 167.775 359.908 138.575 359.908 84.026M363.89 32.8319H484.733V0H363.89V32.8319ZM484.733 71.3077V33.6642C421.607 51.1421 388.237 97.5506 388.237 168H424.39C424.39 117.76 444.195 86.046 484.724 71.3077" fill="#FF671F"></path></g><defs><clipPath id="clip0_348_1675"><rect width="484.465" height="168" fill="white" transform="translate(0.267578)"></rect></clipPath></defs></svg>